<svg id="mensaje" xmlns="http://www.w3.org/2000/svg" viewBox="0 0 1280 720"><defs><style>.cls-1{font-size:23px;fill:#ffcc13;font-family:Simpsonfont;}.cls-2{letter-spacing:0.06em;}.cls-3{letter-spacing:0.03em;}.cls-4{letter-spacing:-0.06em;}.cls-5{letter-spacing:-0.03em;}.cls-6{letter-spacing:-0.03em;}.cls-7{letter-spacing:0.06em;}.cls-8{letter-spacing:0.03em;}.cls-9{letter-spacing:0.05em;}.cls-10{letter-spacing:0.04em;}.cls-11{letter-spacing:-0.05em;}.cls-12{letter-spacing:-0.04em;}.cls-13{letter-spacing:0em;}.cls-14{letter-spacing:0.05em;}.cls-15{letter-spacing:0.03em;}.cls-16,.cls-17{font-family:MyriadPro-Regular, Myriad Pro;}.cls-17{font-size:13px;letter-spacing:0em;}.cls-18{letter-spacing:-0.05em;}.cls-19{letter-spacing:-0.01em;}.cls-20{letter-spacing:-0.02em;}.cls-21{letter-spacing:-0.02em;}.cls-22{letter-spacing:-0.02em;}</style></defs><text class="cls-1" transform="translate(601.62 571.44)"><tspan class="cls-2">L</tspan><tspan x="14.73" y="0">a e</tspan><tspan class="cls-3" x="46.4" y="0">n</tspan><tspan class="cls-4" x="59.45" y="0">t</tspan><tspan x="69.16" y="0">r</tspan><tspan class="cls-5" x="81.17" y="0">e</tspan><tspan class="cls-6" x="92.9" y="0">g</tspan><tspan x="109.01" y="0">a </tspan><tspan class="cls-7" x="128.26" y="0">d</tspan><tspan x="144.2" y="0">el </tspan><tspan class="cls-8" x="173.66" y="0">p</tspan><tspan x="187.44" y="0">ortaf</tspan><tspan class="cls-9" x="250.97" y="0">o</tspan><tspan class="cls-10" x="265.41" y="0">i</tspan><tspan x="271.37" y="0">lo es el </tspan><tspan class="cls-11" x="360.3" y="0">2</tspan><tspan x="373.82" y="0">7 </tspan><tspan class="cls-7" x="391.15" y="0">d</tspan><tspan x="407.08" y="0">e </tspan><tspan class="cls-12" x="424.49" y="0">J</tspan><tspan class="cls-13" x="437.63" y="0">u</tspan><tspan class="cls-14" x="452.34" y="0">n</tspan><tspan class="cls-15" x="465.9" y="0">i</tspan><tspan class="cls-13" x="471.58" y="0">o</tspan><tspan class="cls-16" x="484.94" y="0"> </tspan></text><text class="cls-17" transform="translate(937.85 585.89)">ww<tspan class="cls-18" x="19.11" y="0">w</tspan><tspan class="cls-19" x="28" y="0">.pac</tspan><tspan class="cls-20" x="49.5" y="0">g</tspan><tspan class="cls-21" x="56.52" y="0">r</tspan><tspan class="cls-19" x="60.54" y="0">afica.</tspan><tspan class="cls-22" x="87.54" y="0">c</tspan><tspan class="cls-19" x="93.12" y="0">om</tspan></text></svg>